# xmcd CD database file
#
# Track frame offsets:
#	182
#	19462
#	35925
#	52110
#	70400
#	84005
#	104027
#	127217
#	141132
#	155735
#	178690
#	194447
#	211590
#	237295
#	247690
#	256272
#	273012
#	285487
#
# Disc length: 3966 seconds
#
# Revision: 2
# Processed by: cddbd v1.5.2PL0 Copyright (c) Steve Scherf et al.
# Submitted via: CDex 1.51
#
DISCID=0b0f7c12
DTITLE=Count Basie - The Golden Years - Vol 4  {1944-1945}
DYEAR=1993
DGENRE=Jazz
TTITLE0=Kansas City Stride
TTITLE1=Beaver Junction
TTITLE2=Circus in Rhythm
TTITLE3=Gee, Baby Ain't I Good To You ¿
TTITLE4=Basie Strides Again  (Along Avenue C)
TTITLE5=Harvard Blues
TTITLE6=Taps Miller
TTITLE7=Jimmy's Blues
TTITLE8=Take Me Back Baby
TTITLE9=Playhouse N°2 Stomp
TTITLE10=Just An Old Manuscript
TTITLE11=On The Upbeat
TTITLE12=High Tide
TTITLE13=Sent For You Yesterday
TTITLE14=Jimmy's Boogie Woogie
TTITLE15=Tippin' On The Q.T.
TTITLE16=San Jose
TTITLE17=B-Flat Blues
EXTD=YEAR: 1993
EXTT0=
EXTT1=
EXTT2=
EXTT3=
EXTT4=
EXTT5=
EXTT6=
EXTT7=
EXTT8=
EXTT9=
EXTT10=
EXTT11=
EXTT12=
EXTT13=
EXTT14=
EXTT15=
EXTT16=
EXTT17=
PLAYORDER=
